<svg id="visual" viewBox="0 0 900 600" width="900" height="600" xmlns="http://www.w3.org/2000/svg" xmlns:xlink="http://www.w3.org/1999/xlink" version="1.1"><g stroke-width="1" stroke-linejoin="bevel"><path d="M470 309L386 309L385 414Z" fill="#008cff" stroke="#008cff"></path><path d="M385 414L537 387L470 309Z" fill="#33a0fb" stroke="#33a0fb"></path><path d="M297 410L366 486L385 414Z" fill="#0076ff" stroke="#0076ff"></path><path d="M385 414L516 514L537 387Z" fill="#006eff" stroke="#006eff"></path><path d="M386 309L297 410L385 414Z" fill="#0076ff" stroke="#0076ff"></path><path d="M401 177L306 273L386 309Z" fill="#41a6f9" stroke="#41a6f9"></path><path d="M386 309L306 273L297 410Z" fill="#006eff" stroke="#006eff"></path><path d="M578 479L580 391L537 387Z" fill="#1393fe" stroke="#1393fe"></path><path d="M537 387L585 322L470 309Z" fill="#0076ff" stroke="#0076ff"></path><path d="M580 391L585 322L537 387Z" fill="#006eff" stroke="#006eff"></path><path d="M470 309L401 177L386 309Z" fill="#007eff" stroke="#007eff"></path><path d="M366 486L516 514L385 414Z" fill="#0076ff" stroke="#0076ff"></path><path d="M509 188L401 177L470 309Z" fill="#0066ff" stroke="#0066ff"></path><path d="M516 514L578 479L537 387Z" fill="#2399fd" stroke="#2399fd"></path><path d="M580 391L678 330L585 322Z" fill="#0085ff" stroke="#0085ff"></path><path d="M593 227L509 188L470 309Z" fill="#007eff" stroke="#007eff"></path><path d="M211 461L274 484L297 410Z" fill="#41a6f9" stroke="#41a6f9"></path><path d="M297 410L274 484L366 486Z" fill="#006eff" stroke="#006eff"></path><path d="M366 486L369 600L516 514Z" fill="#4facf7" stroke="#4facf7"></path><path d="M401 177L313 189L306 273Z" fill="#2399fd" stroke="#2399fd"></path><path d="M213 294L214 393L297 410Z" fill="#2399fd" stroke="#2399fd"></path><path d="M678 330L593 227L585 322Z" fill="#0066ff" stroke="#0066ff"></path><path d="M585 322L593 227L470 309Z" fill="#0076ff" stroke="#0076ff"></path><path d="M213 294L297 410L306 273Z" fill="#0066ff" stroke="#0066ff"></path><path d="M313 189L213 294L306 273Z" fill="#007eff" stroke="#007eff"></path><path d="M111 523L211 461L72 438Z" fill="#006eff" stroke="#006eff"></path><path d="M214 393L211 461L297 410Z" fill="#1393fe" stroke="#1393fe"></path><path d="M586 109L508 136L509 188Z" fill="#0066ff" stroke="#0066ff"></path><path d="M509 188L508 136L401 177Z" fill="#1393fe" stroke="#1393fe"></path><path d="M401 177L362 84L313 189Z" fill="#008cff" stroke="#008cff"></path><path d="M301 600L366 486L274 484Z" fill="#008cff" stroke="#008cff"></path><path d="M301 600L369 600L366 486Z" fill="#006eff" stroke="#006eff"></path><path d="M516 514L620 600L578 479Z" fill="#0085ff" stroke="#0085ff"></path><path d="M701 417L678 330L580 391Z" fill="#1393fe" stroke="#1393fe"></path><path d="M369 600L514 600L516 514Z" fill="#4facf7" stroke="#4facf7"></path><path d="M578 479L701 417L580 391Z" fill="#007eff" stroke="#007eff"></path><path d="M209 600L301 600L274 484Z" fill="#41a6f9" stroke="#41a6f9"></path><path d="M681 536L701 417L578 479Z" fill="#008cff" stroke="#008cff"></path><path d="M508 136L362 84L401 177Z" fill="#1393fe" stroke="#1393fe"></path><path d="M166 171L137 277L213 294Z" fill="#0076ff" stroke="#0076ff"></path><path d="M696 179L586 109L593 227Z" fill="#33a0fb" stroke="#33a0fb"></path><path d="M593 227L586 109L509 188Z" fill="#33a0fb" stroke="#33a0fb"></path><path d="M508 136L418 0L362 84Z" fill="#1393fe" stroke="#1393fe"></path><path d="M166 171L213 294L313 189Z" fill="#0066ff" stroke="#0066ff"></path><path d="M213 294L137 277L214 393Z" fill="#007eff" stroke="#007eff"></path><path d="M514 600L620 600L516 514Z" fill="#007eff" stroke="#007eff"></path><path d="M620 600L681 536L578 479Z" fill="#1393fe" stroke="#1393fe"></path><path d="M362 84L271 80L313 189Z" fill="#33a0fb" stroke="#33a0fb"></path><path d="M211 461L209 600L274 484Z" fill="#41a6f9" stroke="#41a6f9"></path><path d="M111 523L209 600L211 461Z" fill="#2399fd" stroke="#2399fd"></path><path d="M204 103L166 171L313 189Z" fill="#33a0fb" stroke="#33a0fb"></path><path d="M678 330L696 179L593 227Z" fill="#1393fe" stroke="#1393fe"></path><path d="M833 274L696 179L678 330Z" fill="#0085ff" stroke="#0085ff"></path><path d="M271 80L204 103L313 189Z" fill="#2399fd" stroke="#2399fd"></path><path d="M72 438L211 461L214 393Z" fill="#0066ff" stroke="#0066ff"></path><path d="M497 0L508 136L586 109Z" fill="#006eff" stroke="#006eff"></path><path d="M497 0L418 0L508 136Z" fill="#0076ff" stroke="#0076ff"></path><path d="M362 84L329 0L271 80Z" fill="#1393fe" stroke="#1393fe"></path><path d="M271 80L212 0L204 103Z" fill="#33a0fb" stroke="#33a0fb"></path><path d="M137 277L72 438L214 393Z" fill="#33a0fb" stroke="#33a0fb"></path><path d="M0 294L72 438L137 277Z" fill="#007eff" stroke="#007eff"></path><path d="M620 600L707 600L681 536Z" fill="#1393fe" stroke="#1393fe"></path><path d="M827 466L812 397L701 417Z" fill="#0066ff" stroke="#0066ff"></path><path d="M701 417L812 397L678 330Z" fill="#1393fe" stroke="#1393fe"></path><path d="M580 0L497 0L586 109Z" fill="#33a0fb" stroke="#33a0fb"></path><path d="M418 0L329 0L362 84Z" fill="#2399fd" stroke="#2399fd"></path><path d="M0 600L128 600L111 523Z" fill="#006eff" stroke="#006eff"></path><path d="M111 523L128 600L209 600Z" fill="#41a6f9" stroke="#41a6f9"></path><path d="M827 466L701 417L681 536Z" fill="#41a6f9" stroke="#41a6f9"></path><path d="M667 0L580 0L586 109Z" fill="#008cff" stroke="#008cff"></path><path d="M72 139L71 191L166 171Z" fill="#007eff" stroke="#007eff"></path><path d="M166 171L71 191L137 277Z" fill="#1393fe" stroke="#1393fe"></path><path d="M72 139L166 171L204 103Z" fill="#007eff" stroke="#007eff"></path><path d="M832 600L827 466L681 536Z" fill="#2399fd" stroke="#2399fd"></path><path d="M900 388L833 274L812 397Z" fill="#4facf7" stroke="#4facf7"></path><path d="M812 397L833 274L678 330Z" fill="#41a6f9" stroke="#41a6f9"></path><path d="M696 179L723 69L586 109Z" fill="#33a0fb" stroke="#33a0fb"></path><path d="M803 108L723 69L696 179Z" fill="#008cff" stroke="#008cff"></path><path d="M108 0L72 139L204 103Z" fill="#33a0fb" stroke="#33a0fb"></path><path d="M329 0L212 0L271 80Z" fill="#2399fd" stroke="#2399fd"></path><path d="M0 183L0 294L71 191Z" fill="#007eff" stroke="#007eff"></path><path d="M71 191L0 294L137 277Z" fill="#0076ff" stroke="#0076ff"></path><path d="M72 438L0 505L111 523Z" fill="#0076ff" stroke="#0076ff"></path><path d="M723 69L667 0L586 109Z" fill="#0076ff" stroke="#0076ff"></path><path d="M0 294L0 435L72 438Z" fill="#007eff" stroke="#007eff"></path><path d="M833 274L830 172L696 179Z" fill="#0076ff" stroke="#0076ff"></path><path d="M723 69L813 0L667 0Z" fill="#4facf7" stroke="#4facf7"></path><path d="M0 435L0 505L72 438Z" fill="#006eff" stroke="#006eff"></path><path d="M830 172L803 108L696 179Z" fill="#33a0fb" stroke="#33a0fb"></path><path d="M72 139L0 183L71 191Z" fill="#007eff" stroke="#007eff"></path><path d="M0 67L0 183L72 139Z" fill="#1393fe" stroke="#1393fe"></path><path d="M707 600L832 600L681 536Z" fill="#007eff" stroke="#007eff"></path><path d="M827 466L900 388L812 397Z" fill="#0085ff" stroke="#0085ff"></path><path d="M900 526L900 388L827 466Z" fill="#33a0fb" stroke="#33a0fb"></path><path d="M833 274L900 219L830 172Z" fill="#0066ff" stroke="#0066ff"></path><path d="M900 388L900 273L833 274Z" fill="#2399fd" stroke="#2399fd"></path><path d="M830 172L900 67L803 108Z" fill="#0066ff" stroke="#0066ff"></path><path d="M212 0L108 0L204 103Z" fill="#0076ff" stroke="#0076ff"></path><path d="M0 505L0 600L111 523Z" fill="#4facf7" stroke="#4facf7"></path><path d="M900 273L900 219L833 274Z" fill="#2399fd" stroke="#2399fd"></path><path d="M832 600L900 526L827 466Z" fill="#1393fe" stroke="#1393fe"></path><path d="M108 0L0 67L72 139Z" fill="#007eff" stroke="#007eff"></path><path d="M900 67L813 0L803 108Z" fill="#006eff" stroke="#006eff"></path><path d="M803 108L813 0L723 69Z" fill="#0066ff" stroke="#0066ff"></path><path d="M832 600L900 600L900 526Z" fill="#33a0fb" stroke="#33a0fb"></path><path d="M900 219L900 67L830 172Z" fill="#008cff" stroke="#008cff"></path><path d="M108 0L0 0L0 67Z" fill="#0066ff" stroke="#0066ff"></path><path d="M900 67L900 0L813 0Z" fill="#0076ff" stroke="#0076ff"></path></g></svg>